<?xml version="1.0" encoding="UTF-8" standalone="no"?>
<svg  xmlns:svg="http://www.w3.org/2000/svg" xmlns="http://www.w3.org/2000/svg" version="1.1" width="560" height="560" id="svg2">
	<title>European roulette wheel</title>
	<defs id="defs1" />
	<g id="g11" transform="translate(280,280)">
		<g id="numberboxes"  style="stroke:#000000;stroke-width:2;stroke-linejoin:miter; font-size:25px;fill:#ffffff;font-family:Verdana,sans-serif;text-anchor:middle;">
			<g transform="rotate(  0.0000)"><path id="box00" style="fill:#009900;" d="M 0,0 L -21.201,-249.099 A 250,250 0 0 1 21.201,-249.099 L 0,0 z" /><text id="text00" x="0" y="-217" style="stroke:none;">0</text></g>
			<g transform="rotate(  9.7297)"><path id="box32" style="fill:#ff0000;" d="M 0,0 L -21.201,-249.099 A 250,250 0 0 1 21.201,-249.099 L 0,0 z" /><text id="text32" x="0" y="-217" style="stroke:none;">32</text></g>
			<g transform="rotate( 19.4595)"><path id="box15" style="fill:#000000;" d="M 0,0 L -21.201,-249.099 A 250,250 0 0 1 21.201,-249.099 L 0,0 z" /><text id="text15" x="0" y="-217" style="stroke:none;">15</text></g>
			<g transform="rotate( 29.1892)"><path id="box19" style="fill:#ff0000;" d="M 0,0 L -21.201,-249.099 A 250,250 0 0 1 21.201,-249.099 L 0,0 z" /><text id="text19" x="0" y="-217" style="stroke:none;">19</text></g>
			<g transform="rotate( 38.9189)"><path id="box04" style="fill:#000000;" d="M 0,0 L -21.201,-249.099 A 250,250 0 0 1 21.201,-249.099 L 0,0 z" /><text id="text04" x="0" y="-217" style="stroke:none;">4</text></g>
			<g transform="rotate( 48.6486)"><path id="box21" style="fill:#ff0000;" d="M 0,0 L -21.201,-249.099 A 250,250 0 0 1 21.201,-249.099 L 0,0 z" /><text id="text21" x="0" y="-217" style="stroke:none;">21</text></g>
			<g transform="rotate( 58.3784)"><path id="box02" style="fill:#000000;" d="M 0,0 L -21.201,-249.099 A 250,250 0 0 1 21.201,-249.099 L 0,0 z" /><text id="text02" x="0" y="-217" style="stroke:none;">2</text></g>
			<g transform="rotate( 68.1081)"><path id="box25" style="fill:#ff0000;" d="M 0,0 L -21.201,-249.099 A 250,250 0 0 1 21.201,-249.099 L 0,0 z" /><text id="text25" x="0" y="-217" style="stroke:none;">25</text></g>
			<g transform="rotate( 77.8378)"><path id="box17" style="fill:#000000;" d="M 0,0 L -21.201,-249.099 A 250,250 0 0 1 21.201,-249.099 L 0,0 z" /><text id="text17" x="0" y="-217" style="stroke:none;">17</text></g>
			<g transform="rotate( 87.5676)"><path id="box34" style="fill:#ff0000;" d="M 0,0 L -21.201,-249.099 A 250,250 0 0 1 21.201,-249.099 L 0,0 z" /><text id="text34" x="0" y="-217" style="stroke:none;">34</text></g>
			<g transform="rotate( 97.2973)"><path id="box06" style="fill:#000000;" d="M 0,0 L -21.201,-249.099 A 250,250 0 0 1 21.201,-249.099 L 0,0 z" /><text id="text06" x="0" y="-217" style="stroke:none;">6</text></g>
			<g transform="rotate(107.0270)"><path id="box27" style="fill:#ff0000;" d="M 0,0 L -21.201,-249.099 A 250,250 0 0 1 21.201,-249.099 L 0,0 z" /><text id="text27" x="0" y="-217" style="stroke:none;">27</text></g>
			<g transform="rotate(116.7568)"><path id="box13" style="fill:#000000;" d="M 0,0 L -21.201,-249.099 A 250,250 0 0 1 21.201,-249.099 L 0,0 z" /><text id="text13" x="0" y="-217" style="stroke:none;">13</text></g>
			<g transform="rotate(126.4865)"><path id="box36" style="fill:#ff0000;" d="M 0,0 L -21.201,-249.099 A 250,250 0 0 1 21.201,-249.099 L 0,0 z" /><text id="text36" x="0" y="-217" style="stroke:none;">36</text></g>
			<g transform="rotate(136.2162)"><path id="box11" style="fill:#000000;" d="M 0,0 L -21.201,-249.099 A 250,250 0 0 1 21.201,-249.099 L 0,0 z" /><text id="text11" x="0" y="-217" style="stroke:none;">11</text></g>
			<g transform="rotate(145.9459)"><path id="box30" style="fill:#ff0000;" d="M 0,0 L -21.201,-249.099 A 250,250 0 0 1 21.201,-249.099 L 0,0 z" /><text id="text30" x="0" y="-217" style="stroke:none;">30</text></g>
			<g transform="rotate(155.6757)"><path id="box08" style="fill:#000000;" d="M 0,0 L -21.201,-249.099 A 250,250 0 0 1 21.201,-249.099 L 0,0 z" /><text id="text08" x="0" y="-217" style="stroke:none;">8</text></g>
			<g transform="rotate(165.4054)"><path id="box23" style="fill:#ff0000;" d="M 0,0 L -21.201,-249.099 A 250,250 0 0 1 21.201,-249.099 L 0,0 z" /><text id="text23" x="0" y="-217" style="stroke:none;">23</text></g>
			<g transform="rotate(175.1351)"><path id="box10" style="fill:#000000;" d="M 0,0 L -21.201,-249.099 A 250,250 0 0 1 21.201,-249.099 L 0,0 z" /><text id="text10" x="0" y="-217" style="stroke:none;">10</text></g>
			<g transform="rotate(184.8649)"><path id="box05" style="fill:#ff0000;" d="M 0,0 L -21.201,-249.099 A 250,250 0 0 1 21.201,-249.099 L 0,0 z" /><text id="text05" x="0" y="-217" style="stroke:none;">5</text></g>
			<g transform="rotate(194.5946)"><path id="box24" style="fill:#000000;" d="M 0,0 L -21.201,-249.099 A 250,250 0 0 1 21.201,-249.099 L 0,0 z" /><text id="text24" x="0" y="-217" style="stroke:none;">24</text></g>
			<g transform="rotate(204.3243)"><path id="box16" style="fill:#ff0000;" d="M 0,0 L -21.201,-249.099 A 250,250 0 0 1 21.201,-249.099 L 0,0 z" /><text id="text16" x="0" y="-217" style="stroke:none;">16</text></g>
			<g transform="rotate(214.0541)"><path id="box33" style="fill:#000000;" d="M 0,0 L -21.201,-249.099 A 250,250 0 0 1 21.201,-249.099 L 0,0 z" /><text id="text33" x="0" y="-217" style="stroke:none;">33</text></g>
			<g transform="rotate(223.7838)"><path id="box01" style="fill:#ff0000;" d="M 0,0 L -21.201,-249.099 A 250,250 0 0 1 21.201,-249.099 L 0,0 z" /><text id="text01" x="0" y="-217" style="stroke:none;">1</text></g>
			<g transform="rotate(233.5135)"><path id="box20" style="fill:#000000;" d="M 0,0 L -21.201,-249.099 A 250,250 0 0 1 21.201,-249.099 L 0,0 z" /><text id="text20" x="0" y="-217" style="stroke:none;">20</text></g>
			<g transform="rotate(243.2432)"><path id="box14" style="fill:#ff0000;" d="M 0,0 L -21.201,-249.099 A 250,250 0 0 1 21.201,-249.099 L 0,0 z" /><text id="text14" x="0" y="-217" style="stroke:none;">14</text></g>
			<g transform="rotate(252.9730)"><path id="box31" style="fill:#000000;" d="M 0,0 L -21.201,-249.099 A 250,250 0 0 1 21.201,-249.099 L 0,0 z" /><text id="text31" x="0" y="-217" style="stroke:none;">31</text></g>
			<g transform="rotate(262.7027)"><path id="box09" style="fill:#ff0000;" d="M 0,0 L -21.201,-249.099 A 250,250 0 0 1 21.201,-249.099 L 0,0 z" /><text id="text09" x="0" y="-217" style="stroke:none;">9</text></g>
			<g transform="rotate(272.4324)"><path id="box22" style="fill:#000000;" d="M 0,0 L -21.201,-249.099 A 250,250 0 0 1 21.201,-249.099 L 0,0 z" /><text id="text22" x="0" y="-217" style="stroke:none;">22</text></g>
			<g transform="rotate(282.1622)"><path id="box18" style="fill:#ff0000;" d="M 0,0 L -21.201,-249.099 A 250,250 0 0 1 21.201,-249.099 L 0,0 z" /><text id="text18" x="0" y="-217" style="stroke:none;">18</text></g>
			<g transform="rotate(291.8919)"><path id="box29" style="fill:#000000;" d="M 0,0 L -21.201,-249.099 A 250,250 0 0 1 21.201,-249.099 L 0,0 z" /><text id="text29" x="0" y="-217" style="stroke:none;">29</text></g>
			<g transform="rotate(301.6216)"><path id="box07" style="fill:#ff0000;" d="M 0,0 L -21.201,-249.099 A 250,250 0 0 1 21.201,-249.099 L 0,0 z" /><text id="text07" x="0" y="-217" style="stroke:none;">7</text></g>
			<g transform="rotate(311.3514)"><path id="box28" style="fill:#000000;" d="M 0,0 L -21.201,-249.099 A 250,250 0 0 1 21.201,-249.099 L 0,0 z" /><text id="text28" x="0" y="-217" style="stroke:none;">28</text></g>
			<g transform="rotate(321.0811)"><path id="box12" style="fill:#ff0000;" d="M 0,0 L -21.201,-249.099 A 250,250 0 0 1 21.201,-249.099 L 0,0 z" /><text id="text12" x="0" y="-217" style="stroke:none;">12</text></g>
			<g transform="rotate(330.8108)"><path id="box35" style="fill:#000000;" d="M 0,0 L -21.201,-249.099 A 250,250 0 0 1 21.201,-249.099 L 0,0 z" /><text id="text35" x="0" y="-217" style="stroke:none;">35</text></g>
			<g transform="rotate(340.5405)"><path id="box03" style="fill:#ff0000;" d="M 0,0 L -21.201,-249.099 A 250,250 0 0 1 21.201,-249.099 L 0,0 z" /><text id="text03" x="0" y="-217" style="stroke:none;">3</text></g>
			<g transform="rotate(350.2703)"><path id="box26" style="fill:#000000;" d="M 0,0 L -21.201,-249.099 A 250,250 0 0 1 21.201,-249.099 L 0,0 z" /><text id="text26" x="0" y="-217" style="stroke:none;">26</text></g>
			<circle cx="0" cy="0" r="210" stroke="#FFFFFF" stroke-width="2" fill="#000000" fill-opacity="0.3"/>
			<circle cx="0" cy="0" r="150" stroke="#000000" stroke-width="2" fill="#d0a817" />
		</g>
		<g>
			<circle cx="0" cy="0" r="250" stroke="#9e7750" stroke-width="20" fill="none" />
			<circle cx="0" cy="0" r="241" stroke="#000000" stroke-width="2" fill="none" />
			<circle cx="0" cy="0" r="260" stroke="#000000" stroke-width="2" fill="none" />
		</g>
	</g>
</svg>